<svg width="69" height="70" viewBox="0 0 69 70" fill="none" xmlns="http://www.w3.org/2000/svg">
<g clip-path="url(#clip0)">
<path d="M53.4059 39.235C51.5084 29.5423 60.575 23.8583 60.575 23.8583C60.575 23.8583 57.0399 18.6783 51.1059 17.3483C45.1719 16.009 42.2026 17.6726 39.2402 18.935C36.2732 20.1856 34.792 20.1856 34.792 20.1856C30.5117 20.1856 27.3814 15.589 19.2187 17.689C13.6044 19.1263 7.68424 25.7063 6.61474 33.565C5.54294 41.4213 7.85214 51.4476 12.3003 59.2176C16.7531 66.9923 21.2841 69.9183 24.4972 70C27.7103 70.0816 30.9234 67.662 34.7966 67.0693C38.6698 66.4953 41.048 68.4996 44.8476 69.5846C48.638 70.6696 49.9628 69.657 54.3167 65.898C58.6867 62.139 62.6496 51.3473 62.6496 51.3473C62.6496 51.3473 55.3057 48.9393 53.4059 39.235Z" fill="black"/>
<path d="M45.0063 11.0767C49.2107 6.72502 47.7824 0.00268555 47.7824 0.00268555C47.7824 0.00268555 41.8806 1.04569 37.9269 5.22469C33.9686 9.40835 34.6241 16.0024 34.6241 16.0024C34.6241 16.0024 40.7973 15.4237 45.0063 11.0767Z" fill="black"/>
</g>
<defs>
<clipPath id="clip0">
<rect width="69" height="70" fill="white"/>
</clipPath>
</defs>
</svg>
