<svg width="70" height="70" viewBox="0 0 70 70" fill="none" xmlns="http://www.w3.org/2000/svg">
<path fill-rule="evenodd" clip-rule="evenodd" d="M37.3893 70H3.86367C1.72922 70 0 68.2697 0 66.1363V3.86367C0 1.72922 1.72922 0 3.86367 0H66.1369C68.2702 0 70 1.72922 70 3.86367V66.1363C70 68.2702 68.2702 70 66.1369 70H48.2989V42.892H57.3978L58.7601 32.3274H48.2989V25.5828C48.2989 22.5241 49.1482 20.44 53.5341 20.44L59.1281 20.4378V10.9889C58.1607 10.8604 54.8401 10.5727 50.9764 10.5727C42.9105 10.5727 37.3887 15.4963 37.3887 24.5372V32.328H28.2669V42.8925H37.3893V70Z" fill="#7FAFE7"/>
</svg>
