<svg width="153" height="150" viewBox="0 0 153 150" fill="none" xmlns="http://www.w3.org/2000/svg">
<path d="M145.95 81.3125C145.95 81.3125 126.541 100.209 99.2136 90.1162L106.296 83.1729C110.973 78.5879 111.182 71.2344 106.968 66.4004C111.959 65.0674 119.145 65.3311 128.125 71.4834C126.467 70.1065 121.073 63.7197 123.478 39.4766L132.638 37.3672C132.623 37.3525 149.581 57.5528 145.95 81.3125Z" stroke="#7FAFE7" stroke-width="5" stroke-miterlimit="10" stroke-linejoin="round"/>
<path d="M123.463 39.4619C119.937 38.8027 121.446 31.918 118.473 32.8994C114.155 34.3203 114.095 27.8603 115.649 25.7217C118.174 22.2353 126.616 20.1553 130.65 21.2392C133.833 22.1035 134.236 25.4726 135.043 29.8379C135.85 34.1885 132.623 37.3672 132.623 37.3672L123.463 39.4619Z" stroke="#7FAFE7" stroke-width="5" stroke-miterlimit="10" stroke-linejoin="round"/>
<path d="M127.647 29.7793L118.473 32.8994" stroke="#7FAFE7" stroke-width="5" stroke-miterlimit="10" stroke-linejoin="round"/>
<path d="M71.303 90.1162C43.9602 100.194 24.5663 81.3125 24.5663 81.3125C20.9355 57.5527 37.894 37.3525 37.894 37.3525L47.0531 39.4619C49.4587 63.7051 44.0798 70.1064 42.4063 71.4687C51.3861 65.3164 58.5729 65.0674 63.5634 66.3857C59.335 71.2344 59.5591 78.5879 64.2357 83.1582L71.303 90.1162Z" stroke="#7FAFE7" stroke-width="5" stroke-miterlimit="10" stroke-linejoin="round"/>
<path d="M47.0531 39.4619C50.5792 38.8027 49.0702 31.918 52.0435 32.8994C56.3616 34.3203 56.4213 27.8603 54.8674 25.7217C52.3423 22.2353 43.9004 20.1553 39.8663 21.2392C36.6837 22.1035 36.2803 25.4726 35.4735 29.8379C34.6667 34.1885 37.894 37.3672 37.894 37.3672L47.0531 39.4619Z" stroke="#7FAFE7" stroke-width="5" stroke-miterlimit="10" stroke-linejoin="round"/>
<path d="M42.8696 29.7793L52.0436 32.8994" stroke="#7FAFE7" stroke-width="5" stroke-miterlimit="10" stroke-linejoin="round"/>
<path d="M106.296 83.1729L99.2137 90.1162L85.2584 103.798L64.2209 83.1729C59.5442 78.5879 59.3351 71.2344 63.5485 66.4004C63.7577 66.1514 63.9818 65.917 64.2209 65.6973C66.6713 63.2949 69.8986 62.0938 73.1409 62.0938C76.3683 62.0938 79.6105 63.2949 82.0609 65.6973L85.2733 68.8467L88.4857 65.6973C93.3865 60.8926 101.41 60.8926 106.311 65.6973C106.55 65.9316 106.759 66.166 106.983 66.4004C111.182 71.2344 110.973 78.5879 106.296 83.1729Z" stroke="#FF2222" stroke-width="5" stroke-miterlimit="10"/>
<path d="M101.305 22.4697V31.0098C101.305 31.1416 101.186 31.2588 101.051 31.2588H89.8603V42.2305C89.8603 42.3623 89.7407 42.4795 89.6062 42.4795H80.8954C80.7609 42.4795 80.6414 42.3623 80.6414 42.2305V31.2588H69.4503C69.3158 31.2588 69.1963 31.1416 69.1963 31.0098V22.4697C69.1963 22.3379 69.3158 22.2207 69.4503 22.2207H80.6414V11.249C80.6414 11.1172 80.7609 11 80.8954 11H89.6062C89.7407 11 89.8603 11.1172 89.8603 11.249V22.2207H101.051C101.201 22.2207 101.305 22.3379 101.305 22.4697Z" stroke="#FF2222" stroke-width="5" stroke-miterlimit="10"/>
<path d="M98.571 105.775L104.757 111.84" stroke="#FF2222" stroke-width="5" stroke-miterlimit="10"/>
<path d="M71.9455 105.775L65.7598 111.84" stroke="#FF2222" stroke-width="5" stroke-miterlimit="10"/>
<path d="M85.2583 115.883V123.485" stroke="#FF2222" stroke-width="5" stroke-miterlimit="10"/>
</svg>
