<svg width="75" height="76" viewBox="0 0 75 76" fill="none" xmlns="http://www.w3.org/2000/svg">
<path d="M73.9746 38.1485C73.9746 43.3142 73.8721 48.4946 74.0039 53.6603C74.2236 62.804 68.5547 69.8696 61.333 73.0165C58.4326 74.2782 55.3857 74.9462 52.2363 74.9462C42.3779 74.961 32.5049 75.0946 22.6465 74.9017C15.2197 74.7532 9.11133 71.6063 4.73145 65.4017C2.43164 62.136 1.33301 58.4251 1.33301 54.4024C1.33301 43.7595 1.33301 33.1313 1.33301 22.4884C1.33301 13.8048 5.50781 7.73369 12.9199 3.78526C16.1426 2.07823 19.6436 1.35088 23.291 1.33604C32.8564 1.33604 42.4365 1.27666 52.002 1.36573C59.4287 1.4251 65.625 4.30479 70.1953 10.361C72.7441 13.7454 73.9746 17.6345 73.9746 21.9095C73.9746 27.3126 73.9746 32.7306 73.9746 38.1485ZM6.73828 38.1485C6.73828 43.5962 6.73828 49.029 6.73828 54.4767C6.73828 56.911 7.29492 59.197 8.54004 61.2603C11.8066 66.6782 16.7432 69.3204 22.8662 69.4243C32.6953 69.5728 42.5391 69.4837 52.3828 69.454C54.7998 69.454 57.1436 68.9493 59.3262 67.8954C65.2734 65.0157 68.5986 60.429 68.5693 53.5415C68.5107 43.0024 68.5547 32.4634 68.5547 21.9243C68.5547 18.9407 67.7197 16.2095 65.9766 13.8048C62.6074 9.18838 57.9492 6.91729 52.3828 6.85791C42.5684 6.73916 32.7539 6.81338 22.9395 6.82823C20.8447 6.82823 18.8232 7.25869 16.8604 8.00088C11.4697 10.0345 6.45996 15.1853 6.69434 22.7704C6.87012 27.9063 6.73828 33.0274 6.73828 38.1485Z" fill="#7FAFE7"/>
<path d="M37.7344 53.8831C28.2862 53.8831 20.669 46.2534 20.6543 36.7534C20.6397 27.4018 28.3154 19.7425 37.7051 19.7425C47.124 19.7276 54.7705 27.3721 54.7852 36.7979C54.7852 46.2089 47.1533 53.8682 37.7344 53.8831ZM37.7344 48.3909C44.1651 48.3909 49.3799 43.1807 49.3653 36.7682C49.3506 30.4151 44.1358 25.2198 37.7344 25.2198C31.3037 25.2198 26.0596 30.4003 26.0596 36.7979C26.0742 43.2104 31.3037 48.4057 37.7344 48.3909Z" fill="#7FAFE7"/>
<path d="M56.7628 14.5469C58.7403 14.5469 60.3517 16.2539 60.3517 18.3469C60.337 20.4398 58.711 22.132 56.7335 22.1172C54.7853 22.1023 53.1886 20.4102 53.1886 18.3617C53.1739 16.2687 54.7853 14.5469 56.7628 14.5469Z" fill="#7FAFE7"/>
</svg>
