<svg width="106" height="110" viewBox="0 0 106 110" fill="none" xmlns="http://www.w3.org/2000/svg">
<path d="M52.6172 110C81.6756 110 105.232 85.3757 105.232 55C105.232 24.6243 81.6756 0 52.6172 0C23.5589 0 0.00244141 24.6243 0.00244141 55C0.00244141 85.3757 23.5589 110 52.6172 110Z" fill="#7FAFE7"/>
<path d="M75.5762 61C75.5762 62.105 74.72 63 73.6629 63H44.9639V59H73.6629C74.72 59 75.5762 59.895 75.5762 61Z" fill="#3E3E3F"/>
<path d="M27.7448 79H29.6581L36.6683 68.483C33.5477 66.337 31.203 63.194 29.9183 59.267C27.4215 51.636 29.417 42.549 34.8822 36.656C39.3861 31.8 45.6721 29.69 52.6172 30.56V27H64.0968V51H52.6172V39.648C47.8723 38.745 43.9109 39.851 41.064 42.921C37.8459 46.392 36.6128 51.916 38.065 56.356C38.5863 57.95 39.6099 59.806 41.5921 61.097L41.9164 60.61C42.63 59.598 43.7607 59 44.9642 59C46.1676 59 47.2984 59.598 48.013 60.61L60.2703 79H81.3162C82.3723 79 83.2295 79.896 83.2295 81V85C83.2295 86.104 82.3723 87 81.3162 87H27.7448C26.6887 87 25.8315 86.104 25.8315 85V81C25.8315 79.896 26.6887 79 27.7448 79Z" fill="#E2E4E5"/>
<path d="M55.487 24H61.2268V27H55.487V24Z" fill="#3E3E3F"/>
<path d="M54.5303 51H62.1833V55H54.5303V51Z" fill="#3E3E3F"/>
<path d="M36.668 68.483C33.5474 66.337 31.2027 63.194 29.918 59.267C27.4212 51.636 29.4167 42.549 34.8819 36.656C39.3858 31.8 45.6718 29.69 52.617 30.56V39.648C47.8721 38.745 43.9097 39.851 41.0637 42.92C37.8456 46.391 36.6125 51.915 38.0647 56.355C38.586 57.95 39.6096 59.805 41.5918 61.096L41.9161 60.61C42.6297 59.598 43.7605 59 44.9639 59C46.1673 59 47.2981 59.598 48.0127 60.61L60.27 79H29.6578L36.668 68.483Z" fill="#F0F1F1"/>
<path d="M41.9151 60.61C42.6297 59.598 43.7605 59 44.9639 59C46.1673 59 47.2981 59.598 48.0127 60.61L60.27 79H51.7636L38.7353 65.381L41.9151 60.61Z" fill="white"/>
<path d="M58.3568 51H62.1833V55H58.3568V51Z" fill="#5B5C5F"/>
<path d="M58.3569 24H61.2268V27H58.3569V24Z" fill="#5B5C5F"/>
<path d="M58.3571 27H64.0969V51H58.3571V27Z" fill="white"/>
<path d="M44.9639 67C43.9073 67 43.0507 66.1046 43.0507 65C43.0507 63.8954 43.9073 63 44.9639 63C46.0206 63 46.8772 63.8954 46.8772 65C46.8772 66.1046 46.0206 67 44.9639 67Z" fill="#5B5C5F"/>
</svg>
