<svg width="85" height="91" viewBox="0 0 85 91" fill="none" xmlns="http://www.w3.org/2000/svg">
<path opacity="0.2" d="M75.9688 8.53125H9.03125C6.97744 8.53125 5.3125 10.3137 5.3125 12.5125V84.175C5.3125 86.3738 6.97744 88.1562 9.03125 88.1562H75.9688C78.0226 88.1562 79.6875 86.3738 79.6875 84.175V12.5125C79.6875 10.3137 78.0226 8.53125 75.9688 8.53125Z" fill="black"/>
<path d="M75.9688 5.6875H9.03125C6.97744 5.6875 5.3125 7.46997 5.3125 9.66875V81.3313C5.3125 83.53 6.97744 85.3125 9.03125 85.3125H75.9688C78.0226 85.3125 79.6875 83.53 79.6875 81.3313V9.66875C79.6875 7.46997 78.0226 5.6875 75.9688 5.6875Z" fill="#C93E5F"/>
<path opacity="0.2" d="M9.03231 5.6875C6.97212 5.6875 5.3125 7.46427 5.3125 9.66989V12.5136C5.3125 10.308 6.97212 8.53125 9.03231 8.53125H75.9698C78.0284 8.53125 79.6886 10.308 79.6886 12.5136V9.66989C79.6886 7.46427 78.0284 5.6875 75.9698 5.6875H9.03231Z" fill="white"/>
<path d="M13.2812 42.6562V45.5C13.2812 47.0641 14.4845 48.3438 15.9375 48.3438C29.1417 48.3438 39.8438 59.8012 39.8438 73.9375C39.8438 75.5016 41.047 76.7812 42.5 76.7812H45.1562V73.9375C45.1562 56.6617 32.0742 42.6562 15.9375 42.6562H13.2812ZM13.2812 54.0312V56.875C13.2812 58.4391 14.4845 59.7188 15.9375 59.7188C23.2714 59.7188 29.2188 66.0859 29.2188 73.9375C29.2188 75.5016 30.422 76.7812 31.875 76.7812H34.5312V73.9375C34.5312 62.9436 26.2066 54.0312 15.9375 54.0312H13.2812ZM18.5938 65.4062C15.6586 65.4062 13.2812 67.9514 13.2812 71.0938C13.2812 74.2361 15.6586 76.7812 18.5938 76.7812C21.5289 76.7812 23.9062 74.2361 23.9062 71.0938C23.9062 67.9514 21.5289 65.4062 18.5938 65.4062Z" fill="white"/>
</svg>
