<svg width="88" height="89" viewBox="0 0 88 89" fill="none" xmlns="http://www.w3.org/2000/svg">
<path d="M60.3999 63.6L58.6999 58.3C58.4999 57.6 57.9999 57 57.2999 56.6C57.8999 54.6 57.9999 52.8 58.0999 51.6C58.1999 50.1 57.9999 49.1 57.9999 48.9C57.8999 48.3 57.0999 42.6 55.7999 39.5L55.6999 39.3C54.2999 36.1 52.4999 35.4 51.1999 35.4C50.0999 35.4 49.0999 35.8 48.4999 36.4C48.1999 36.2 47.8999 36 47.5999 35.9C46.4999 35.5 45.3999 35.4 44.3999 35.8C43.8999 36 43.6999 36.3 43.3999 36.6C43.1999 36.5 42.9999 36.4 42.9999 36.3V18.9C42.9999 16.6 40.5999 15 38.2999 15H21.3999C20.2999 15 19.0999 15.3 18.2999 16.1C17.5999 16.9 16.9999 17.8 16.9999 18.9V30.9C16.9999 31.3 15.7999 31.9 15.1999 33L11.8999 41.4V41.5C11.1999 43.3 10.7999 45.9 10.5999 49.1C10.4999 49.8 10.4999 50.5 10.4999 51.1C9.9999 51 9.5999 50.9 9.0999 51C8.2999 51.1 7.6999 51.6 7.2999 52.2L4.1999 56.8C3.7999 57.4 3.5999 58.2 3.7999 59C3.8999 59.8 4.3999 60.4 4.9999 60.8L19.8999 70.8C20.3999 71.1 20.8999 71.3 21.4999 71.3C22.4999 71.3 23.3999 70.8 23.8999 70L26.9999 65.4C27.3999 64.8 27.5999 64 27.3999 63.3C28.0999 63.1 28.6999 62.9 29.2999 62.5C30.3999 61.9 31.3999 61 32.3999 59.9C32.9999 59.2 33.4999 58.5 33.8999 57.9L37.2999 62C36.7999 62.3 36.4999 62.7 36.1999 63.2C35.7999 63.9 35.7999 64.7 35.9999 65.4L37.6999 70.7C37.8999 71.4 38.3999 72 39.0999 72.4C39.4999 72.6 39.9999 72.7 40.3999 72.7C40.6999 72.7 40.9999 72.7 41.2999 72.6L58.4999 67.2C59.1999 67 59.7999 66.5 60.1999 65.8C60.5999 65.1 60.6999 64.3 60.3999 63.6ZM40.2999 69.9L38.5999 64.6C38.5999 64.5 38.5999 64.5 38.5999 64.4C38.5999 64.3 38.6999 64.3 38.7999 64.3L55.3999 59L56.0999 58.8H56.1999C56.2999 58.8 56.2999 58.9 56.2999 59L57.9999 64.3C57.9999 64.4 57.9999 64.4 57.9999 64.5C57.9999 64.6 57.8999 64.6 57.7999 64.6L40.5999 70C40.5999 70 40.4999 70 40.3999 70C40.2999 70.1 40.2999 70 40.2999 69.9ZM37.7999 41.8L39.0999 44.1L41.3999 42.8L39.9999 40.4C39.7999 40.1 40.1999 39.4 40.7999 39C41.6999 38.4 42.2999 39.1 42.5999 39.4L43.7999 41.8L46.1999 40.6L44.9999 38.4C44.9999 38.3 45.1999 38.2 45.3999 38.1C45.9999 37.9 47.0999 38.1 48.0999 39.4L48.9999 40.7L51.1999 39.3L50.6999 38.5C50.5999 38.4 50.4999 38.2 50.3999 38.1C50.5999 37.9 50.8999 37.8 51.1999 37.8C51.8999 37.8 52.6999 38.7 53.3999 40.3C54.4999 43 55.2999 48.1 55.3999 49V49.1C55.3999 49.1 55.7999 52.3 54.5999 56.5L39.8999 61.1L27.1999 45.6C26.6999 44.9 27.1999 44.1 27.5999 43.7C27.7999 43.5 28.3999 43 28.9999 43.5L34.4999 48.9L36.2999 52.7L38.6999 51.6L27.9999 29.6C27.1999 28 28.0999 27.4 28.2999 27.2C28.6999 27 29.5999 26.9 30.0999 27.8L37.5999 41.5L37.7999 41.8ZM23.1999 53H30.1999L30.3999 54H22.9999C23.0999 54 23.0999 54 23.1999 53ZM39.9999 36.5C39.9999 36.6 39.5999 36.6 39.4999 36.7C39.0999 36.9 38.7999 37.2 38.4999 37.5L32.3999 26.4C31.7999 25.4 30.9999 24.7 29.8999 24.5C28.8999 24.2 27.8999 24.4 27.0999 24.8C26.1999 25.3 25.4999 26.1 25.1999 27.1C24.8999 28.2 24.9999 29.4 25.5999 30.6L31.0999 41.9L30.7999 41.6C29.1999 40.1 27.0999 40.6 25.8999 41.7C24.3999 43 23.6999 45.4 25.1999 47.3L27.9999 51H23.9999C24.0999 50 23.7999 48.5 23.0999 47.5C22.3999 46.4 21.3999 45.8 21.2999 45.8C20.4999 45.3 20.5999 43.5 20.8999 42.5L22.5999 36.1C22.8999 35.3 22.8999 34.5 22.7999 33.7C22.5999 33 22.3999 32.3 21.8999 31.7C21.3999 31.1 20.9999 30.7 19.9999 30.5V20H39.9999V36.5ZM18.7999 33.1C19.1999 33 19.4999 33.2 19.8999 33.5C20.2999 33.9 20.3999 34.5 20.1999 35.1L18.3999 41.7C18.3999 41.9 17.1999 46 19.8999 47.8L19.9999 48C19.9999 48 20.5999 48.3 20.9999 48.9C21.5999 49.7 21.5999 50.6 21.0999 51.7C20.7999 52.3 20.2999 53.1 19.6999 53.9C19.5999 54.1 19.3999 54.2 19.2999 54.4L18.1999 55.5L19.6999 56L19.9999 56.1H20.0999H20.1999C20.2999 56.1 20.2999 56 20.3999 56C20.6999 56.1 21.0999 56 21.4999 56H31.9999C31.5999 57 31.1999 57.4 30.5999 58.1C28.9999 59.9 27.2999 61 25.5999 61L12.9999 52.6C12.9999 50.7 13.2999 45.4 14.3999 42.3L17.6999 34.1C17.9999 33.6 18.3999 33.2 18.7999 33.1ZM21.3999 17H38.2999C38.5999 17 38.7999 17 39.0999 18H20.6999C20.8999 17 21.1999 17 21.3999 17ZM24.7999 64L21.6999 68.6C21.6999 68.7 21.5999 68.7 21.4999 68.7C21.4999 68.7 21.3999 68.7 21.2999 68.7L6.2999 58.7C6.1999 58.7 6.1999 58.6 6.1999 58.5C6.1999 58.4 6.1999 58.4 6.1999 58.3L9.2999 53.7C9.2999 53.6 9.3999 53.6 9.4999 53.6H9.5999L24.4999 63.6C24.8999 63.8 24.8999 63.9 24.7999 64Z" fill="#7FAFE7"/>
<path d="M42.0999 68.5C42.2999 68.5 42.4999 68.5 42.6999 68.4C43.1999 68.2 43.6999 67.9 43.8999 67.4C44.1999 66.9 44.1999 66.1 43.9999 65.6C43.5999 64.5 42.1999 63.9 41.3999 64.1C40.3999 64.4 40.1999 65 40.0999 65.2C39.9999 65.8 39.8999 66.4 39.9999 67C40.2999 67.8 41.0999 68.5 42.0999 68.5ZM42.0999 65.9C42.2999 65.9 42.4999 66 42.5999 66.2C42.5999 66.3 42.5999 66.5 42.5999 66.6C42.5999 66.7 42.3999 66.8 42.2999 66.8C42.1999 66.8 41.9999 66.8 41.8999 66.8C41.7999 66.7 41.6999 66.6 41.6999 66.5C41.6999 66.4 41.6999 66.2 41.6999 66.1C41.7999 66 41.8999 65.9 41.9999 65.9C41.9999 65.9 41.9999 65.9 42.0999 65.9Z" fill="#7FAFE7"/>
<path d="M19.7998 66.5C20.1998 66.7 20.5998 66.9 20.9998 66.9C21.0998 66.9 21.2998 66.9 21.3998 66.9C21.9998 66.8 22.3998 66.5 22.7998 66C23.0998 65.5 23.1998 65 23.0998 64.4C22.9998 63.8 22.6998 63.4 22.1998 63C21.6998 62.7 21.1998 62.6 20.5998 62.7C19.9998 62.8 19.5998 63.1 19.1998 63.6C18.8998 64.1 18.7998 64.6 18.8998 65.2C18.9998 65.7 19.2998 66.2 19.7998 66.5ZM20.9998 64.3C21.0998 64.3 21.1998 64.3 21.2998 64.4C21.3998 64.5 21.4998 64.6 21.4998 64.7C21.4998 64.8 21.4998 65 21.3998 65.1C21.2998 65.2 21.1998 65.3 21.0998 65.3C20.9998 65.3 20.7998 65.3 20.6998 65.2C20.5998 65.1 20.4998 65 20.4998 64.9C20.4998 64.8 20.4998 64.6 20.5998 64.5C20.6998 64.4 20.7998 64.3 20.8998 64.3H20.9998Z" fill="#7FAFE7"/>
</svg>
