<svg width="64" height="48" viewBox="0 0 64 48" fill="none" xmlns="http://www.w3.org/2000/svg">
<g clip-path="url(#clip0)">
<path d="M62.6667 0H9.33333C8.59635 0 8 0.447266 8 1V6H1.33333C0.596354 6 0 6.44727 0 7V32C0 34.2061 2.39323 36 5.33333 36H58.6667C61.6068 36 64 34.2061 64 32V1C64 0.447266 63.4036 0 62.6667 0Z" fill="#303C42"/>
<path d="M7.99984 32C7.99984 33.1025 6.80452 34 5.33317 34C3.86182 34 2.6665 33.1025 2.6665 32V8H7.99984V32Z" fill="white"/>
<path d="M61.3333 32C61.3333 33.1025 60.1379 34 58.6666 34H9.95044C10.4062 33.4111 10.6666 32.7275 10.6666 32V2H61.3333V32Z" fill="white"/>
<path d="M14.6666 16C15.4036 16 15.9999 15.5527 15.9999 15V8H17.3333C18.0676 8 18.6666 8.44824 18.6666 9V15C18.6666 15.5527 19.2629 16 19.9999 16C20.7369 16 21.3333 15.5527 21.3333 15V9C21.3333 7.3457 19.539 6 17.3333 6H14.6666C13.9296 6 13.3333 6.44727 13.3333 7V15C13.3333 15.5527 13.9296 16 14.6666 16Z" fill="#303C42"/>
<path d="M25.3333 16H30.6667C31.4036 16 32 15.5527 32 15C32 14.4473 31.4036 14 30.6667 14H26.6667V12H29.3333C30.0703 12 30.6667 11.5527 30.6667 11C30.6667 10.4473 30.0703 10 29.3333 10H26.6667V8H30.6667C31.4036 8 32 7.55273 32 7C32 6.44727 31.4036 6 30.6667 6H25.3333C24.5964 6 24 6.44727 24 7V15C24 15.5527 24.5964 16 25.3333 16Z" fill="#303C42"/>
<path d="M37.5571 15.5547C37.8045 15.833 38.2212 16 38.6665 16C39.1118 16 39.5285 15.833 39.7759 15.5547L41.3332 13.8027L42.8905 15.5547C43.1379 15.833 43.5545 16 43.9998 16C44.4451 16 44.8618 15.833 45.1092 15.5547L47.7759 12.5547C47.9217 12.3906 47.9998 12.1973 47.9998 12V7C47.9998 6.44727 47.4035 6 46.6665 6C45.9295 6 45.3332 6.44727 45.3332 7V11.6973L43.9998 13.1973L42.6665 11.6973V7C42.6665 6.44727 42.0701 6 41.3332 6C40.5962 6 39.9998 6.44727 39.9998 7V11.6973L38.6665 13.1973L37.3332 11.6973V7C37.3332 6.44727 36.7368 6 35.9998 6C35.2629 6 34.6665 6.44727 34.6665 7V12C34.6665 12.1973 34.7446 12.3906 34.8905 12.5547L37.5571 15.5547Z" fill="#303C42"/>
<path d="M54.6665 14H51.9998C51.2629 14 50.6665 14.4473 50.6665 15C50.6665 15.5527 51.2629 16 51.9998 16H54.6665C56.8722 16 58.6665 14.6543 58.6665 13C58.6665 11.3457 56.8722 10 54.6665 10C53.9321 10 53.3332 9.55176 53.3332 9C53.3332 8.44824 53.9321 8 54.6665 8H57.3332C58.0701 8 58.6665 7.55273 58.6665 7C58.6665 6.44727 58.0701 6 57.3332 6H54.6665C52.4608 6 50.6665 7.3457 50.6665 9C50.6665 10.6543 52.4608 12 54.6665 12C55.4009 12 55.9998 12.4482 55.9998 13C55.9998 13.5518 55.4009 14 54.6665 14Z" fill="#303C42"/>
<path d="M14.6666 30H33.3333C34.0702 30 34.6666 29.5527 34.6666 29V19C34.6666 18.4473 34.0702 18 33.3333 18H14.6666C13.9296 18 13.3333 18.4473 13.3333 19V29C13.3333 29.5527 13.9296 30 14.6666 30Z" fill="#303C42"/>
<path d="M57.3333 20H38.6666C37.9296 20 37.3333 20.4473 37.3333 21C37.3333 21.5527 37.9296 22 38.6666 22H57.3333C58.0702 22 58.6666 21.5527 58.6666 21C58.6666 20.4473 58.0702 20 57.3333 20Z" fill="#303C42"/>
<path d="M57.3333 24H38.6666C37.9296 24 37.3333 24.4473 37.3333 25C37.3333 25.5527 37.9296 26 38.6666 26H57.3333C58.0702 26 58.6666 25.5527 58.6666 25C58.6666 24.4473 58.0702 24 57.3333 24Z" fill="#303C42"/>
<path d="M57.3333 28H38.6666C37.9296 28 37.3333 28.4473 37.3333 29C37.3333 29.5527 37.9296 30 38.6666 30H57.3333C58.0702 30 58.6666 29.5527 58.6666 29C58.6666 28.4473 58.0702 28 57.3333 28Z" fill="#303C42"/>
<path d="M32 20H16V28H32V20Z" fill="#7FAFE7"/>
<path d="M60.1066 15.7091H6.77328C6.0363 15.7091 5.43994 16.1564 5.43994 16.7091V21.7091H-1.22673C-1.9637 21.7091 -2.56006 22.1564 -2.56006 22.7091V47.7091C-2.56006 49.9152 -0.166829 51.7091 2.77327 51.7091H56.1066C59.0467 51.7091 61.4399 49.9152 61.4399 47.7091V16.7091C61.4399 16.1564 60.8436 15.7091 60.1066 15.7091Z" fill="url(#paint0_linear)"/>
</g>
<defs>
<linearGradient id="paint0_linear" x1="-2.29781" y1="22.0647" x2="55.5668" y2="58.0416" gradientUnits="userSpaceOnUse">
<stop stop-color="white" stop-opacity="0.2"/>
<stop offset="1" stop-color="white" stop-opacity="0"/>
</linearGradient>
<clipPath id="clip0">
<rect width="64" height="48" fill="white"/>
</clipPath>
</defs>
</svg>
