<svg width="140" height="130" viewBox="0 0 140 130" fill="none" xmlns="http://www.w3.org/2000/svg">
<path d="M70.0273 117.889C95.262 117.889 115.719 98.8931 115.719 75.4609C115.719 52.0287 95.262 33.0332 70.0273 33.0332C44.7927 33.0332 24.3359 52.0287 24.3359 75.4609C24.3359 98.8931 44.7927 117.889 70.0273 117.889Z" fill="#7FAFE7"/>
<path d="M131.332 39.127C131.332 29.6563 123.074 21.9883 112.875 21.9883C102.676 21.9883 94.418 29.6563 94.418 39.127C94.418 43.7988 96.4414 48.0391 99.7227 51.1367C102.512 54.0059 101.418 59.4649 101.418 59.4649C101.418 59.4649 103.332 58.3984 104.973 57.8906C106.586 57.3828 111.316 57.0273 116.375 55.9609C124.879 54.4629 131.332 47.5059 131.332 39.127Z" fill="#E5E5E5"/>
<path d="M131.551 36.7656C131.551 27.2949 123.293 19.627 113.094 19.627C102.895 19.627 94.6094 27.2949 94.6094 36.7656C94.6094 41.4375 96.6328 45.6777 99.9141 48.7754C102.703 51.6445 101.609 57.1035 101.609 57.1035C101.609 57.1035 103.523 56.0371 105.164 55.5293C106.777 55.0215 111.508 54.666 116.566 53.5996C125.098 52.1016 131.551 45.1445 131.551 36.7656Z" fill="#7FAFE7"/>
<path d="M35.082 106.539L39.375 91.1523H100.078L104.973 107.377C104.973 107.377 91.4648 120.072 69.3164 119.996C47.168 119.92 35.082 106.539 35.082 106.539Z" fill="#7FAFE7"/>
<path d="M59.2812 77.8223V72.7695H69.8906V83.332H64.5859L59.2812 77.8223Z" fill="#FBD2AB"/>
<path d="M67.9219 82.5957L59.3359 77.2637L53.9766 78.2539L67.6484 105.371L67.9219 82.5957Z" fill="#7FAFE7"/>
<path d="M69.8906 82.3418H67.0742L64.832 84.9824L67.375 87.4453L65.4336 98.2363L69.8906 106.514V82.3418Z" fill="#F26A45"/>
<path d="M69.8906 118.295V108.139L54.6602 78.1016C54.6602 78.1016 38.6914 80.8184 38.6914 94.6309C38.6914 108.443 39.1562 114.41 39.1562 114.41C39.1562 114.41 56.2734 118.828 69.8906 118.295Z" fill="white"/>
<path d="M69.8906 109.281L52.9648 93.4883L56.5469 87.8516L52.0898 85.7187L54.6602 78.127L69.8906 105.244V109.281Z" fill="#E4E4E4"/>
<path d="M69.8906 34.9122V68.7325C69.8906 68.7325 56.0273 71.5001 51.9531 62.5626C47.8789 53.6251 51.9531 37.6798 51.9531 37.6798C51.9531 37.6798 51.9258 28.1329 69.8906 34.9122Z" fill="#FBD2AB"/>
<path d="M52.0625 43.7227C52.0625 43.7227 52.0625 51.5684 52.0625 57.332C52.0625 63.0957 58.0508 66.3965 58.0508 66.3965C58.0508 66.3965 59.0898 63.7305 62.5898 61.3691C66.0898 59.0078 69.8906 59.3887 69.8906 59.3887V74.7246C69.8906 74.7246 67.7578 74.7246 64.8047 74.7246C61.8516 74.7246 56.3555 73.2012 52.8828 69.0625C49.4102 64.9238 49.2188 62.2324 49.2188 55.5293C49.2188 48.8262 49.2188 43.7227 49.2188 43.7227H52.0625Z" fill="#E9C09D"/>
<path d="M49.5469 52.8886C49.5469 52.8886 44.9258 53.0663 44.9258 48.8515C44.9258 44.6366 49.5469 44.9159 49.5469 44.9159V52.8886Z" fill="#FBD2AB"/>
<path d="M69.8905 56.418C69.8905 56.418 67.0194 56.418 66.4452 56.418C65.871 56.418 65.2968 56.1387 66.0624 54.3359C66.828 52.5332 68.3046 49.2578 68.7421 48.5215C69.1522 47.7852 69.8905 47.4551 69.8905 47.4551V56.418Z" fill="#FBDFC4"/>
<path d="M61.6055 48.3184C62.874 48.3184 63.9023 47.3635 63.9023 46.1855C63.9023 45.0076 62.874 44.0527 61.6055 44.0527C60.3369 44.0527 59.3086 45.0076 59.3086 46.1855C59.3086 47.3635 60.3369 48.3184 61.6055 48.3184Z" fill="#383B3B"/>
<path d="M69.8906 65.4062H64.8047C64.8047 65.4062 64.832 67.209 66.5547 68.707C68.2773 70.2051 69.918 70.0527 69.918 70.0527V65.4062H69.8906Z" fill="#383B3B"/>
<path d="M69.8906 64.0859H64.9141L64.8047 65.4062H69.8906V64.0859Z" fill="white"/>
<path d="M66.6094 68.7578C66.6094 68.7578 66.9102 68.4531 67.8672 67.9707C68.8242 67.4883 69.918 67.4375 69.918 67.4375V70.0528C69.8906 70.0528 68.3867 70.2051 66.6094 68.7578Z" fill="#F26A45"/>
<path d="M80.4727 77.8223V72.7695H69.8633V83.332H75.168L80.4727 77.8223Z" fill="#DEBA97"/>
<path d="M71.832 82.5957L80.418 77.2637L85.7773 78.2539L72.1055 105.371L71.832 82.5957Z" fill="#7FAFE7"/>
<path d="M69.8633 82.3418H72.6797L74.9219 84.9824L72.3789 87.4453L74.3203 98.2363L69.8633 106.514V82.3418Z" fill="#E5613D"/>
<path d="M69.8633 118.295V108.139L85.0938 78.1016C85.0938 78.1016 101.063 80.8184 101.063 94.6309C101.063 108.443 100.598 114.41 100.598 114.41C100.598 114.41 83.4805 118.828 69.8633 118.295Z" fill="#F3F3F3"/>
<path d="M69.8633 109.281L86.8164 93.4883L83.207 87.8516L87.6641 85.7187L85.0938 78.127L69.8633 105.244V109.281Z" fill="#D8D9D8"/>
<path d="M69.8633 34.9122V68.7325C69.8633 68.7325 83.7266 71.5001 87.8008 62.5626C91.875 53.6251 87.8008 37.6798 87.8008 37.6798C87.8008 37.6798 87.8281 28.1329 69.8633 34.9122Z" fill="#EEC7A2"/>
<path d="M87.6914 43.7227C87.6914 43.7227 87.6914 51.5684 87.6914 57.332C87.6914 63.0957 81.7031 66.3965 81.7031 66.3965C81.7031 66.3965 80.6641 63.7305 77.1641 61.3691C73.6641 59.0078 69.8633 59.3887 69.8633 59.3887V74.7246C69.8633 74.7246 71.9961 74.7246 74.9492 74.7246C77.9023 74.7246 83.3984 73.2012 86.8711 69.0625C90.3438 64.9238 90.5352 62.2324 90.5352 55.5293C90.5352 48.8262 90.5352 43.7227 90.5352 43.7227H87.6914Z" fill="#DEB696"/>
<path d="M90.207 52.8886C90.207 52.8886 94.8281 53.0663 94.8281 48.8515C94.8281 44.6366 90.207 44.9159 90.207 44.9159V52.8886Z" fill="#E6C29D"/>
<path d="M69.8633 56.418C69.8633 56.418 72.7344 56.418 73.3086 56.418C73.8828 56.418 74.457 56.1387 73.6914 54.3359C72.9258 52.5332 71.4492 49.2578 71.0117 48.5215C70.6016 47.7852 69.8633 47.4551 69.8633 47.4551V56.418Z" fill="#FBD2AB"/>
<path d="M78.1484 48.3184C79.417 48.3184 80.4453 47.3635 80.4453 46.1855C80.4453 45.0076 79.417 44.0527 78.1484 44.0527C76.8799 44.0527 75.8516 45.0076 75.8516 46.1855C75.8516 47.3635 76.8799 48.3184 78.1484 48.3184Z" fill="#383B3B"/>
<path d="M69.8633 65.4062H74.9492C74.9492 65.4062 74.9219 67.209 73.1992 68.707C71.4766 70.2051 69.8359 70.0527 69.8359 70.0527V65.4062H69.8633Z" fill="#383B3B"/>
<path d="M69.8633 64.0859H74.8398L74.9492 65.4062H69.8633V64.0859Z" fill="#F3F3F3"/>
<path d="M73.1445 68.7578C73.1445 68.7578 72.8437 68.4531 71.8867 67.9707C70.9297 67.4883 69.8359 67.4375 69.8359 67.4375V70.0528C69.8633 70.0528 71.3672 70.2051 73.1445 68.7578Z" fill="#EC6440"/>
<path d="M125.344 32.373H100.707V34.1758H125.344V32.373Z" fill="white"/>
<path d="M125.344 36.3594H100.707V38.1621H125.344V36.3594Z" fill="white"/>
<path d="M117.086 40.3457H100.707V42.1484H117.086V40.3457Z" fill="white"/>
<path d="M49.3007 44.9668C49.3007 44.9668 50.914 44.9668 51.707 44.9668C52.4999 44.9668 53.8945 43.4687 53.8945 42.25C53.8945 41.0058 53.8945 38.0605 53.8945 36.9687C53.8945 35.8769 54.9882 34.2773 58.6796 34.2773C62.371 34.2773 67.1835 37.1465 71.9687 37.959C76.7538 38.7715 78.996 38.3398 78.996 38.3398C78.996 38.3398 77.7109 37.6543 76.2343 36.6133C74.7577 35.5723 74.1835 34.2773 74.1835 34.2773C74.1835 34.2773 80.4726 34.2773 82.2773 34.2773C84.082 34.2773 85.914 35.3691 85.914 39.0508C85.914 42.7324 86.707 44.9668 88.3202 44.9668C89.9335 44.9668 90.4257 44.9668 90.4257 44.9668C90.4257 44.9668 90.4257 39.9648 90.4257 37.6289C90.4257 35.293 89.4687 30.9004 84.1367 26.5078C78.8046 22.1152 71.0117 22.3691 71.0117 22.3691C71.0117 22.3691 71.2031 21.8105 71.2304 20.5664C71.2577 19.3223 70.8202 18.5098 70.8202 18.5098C70.8202 18.5098 69.8632 19.8809 68.8241 20.9219C67.7851 21.9375 66.6913 22.293 66.6913 22.293C66.6913 22.293 66.6093 20.9219 64.6679 19.9062C62.7265 18.916 60.2656 19.2969 60.2656 19.2969C60.2656 19.2969 61.7968 20.668 62.207 21.4297C62.6171 22.166 62.7812 23.2324 62.7812 23.2324C62.7812 23.2324 56.082 24.1211 51.7616 30.4687C47.4413 36.8164 49.3007 44.9668 49.3007 44.9668Z" fill="#5D3918"/>
<path d="M66.1719 56.4179L69.7539 59.4648V56.4179H66.1719Z" fill="#E6C29D"/>
<path d="M81.3203 101.156C81.3203 101.156 81.3203 104.457 81.3203 105.98C81.3203 107.504 82.7422 108.85 85.3945 108.85C88.0469 108.85 89.9609 107.91 89.9609 105.6C89.9609 103.289 89.9609 101.156 89.9609 101.156H81.3203Z" fill="#D8D9D8"/>
<path d="M84.9297 98.5156H83.1797V103.264H84.9297V98.5156Z" fill="#6FB744"/>
<path d="M88.1289 98.5156H86.3789V103.264H88.1289V98.5156Z" fill="#F26A45"/>
</svg>
