<svg width="69" height="70" viewBox="0 0 69 70" fill="none" xmlns="http://www.w3.org/2000/svg">
<path d="M68.9798 0H0.0202148C0.00905049 0 0 0.00918166 0 0.0205078V69.9795C0 69.9908 0.00905049 70 0.0202148 70H68.9798C68.991 70 69 69.9908 69 69.9795V0.0205078C69 0.00918166 68.991 0 68.9798 0Z" fill="black"/>
<path d="M16.1719 11.8945C15.7227 12.6237 15.4531 13.4896 15.3633 14.4922V55.6445C15.4531 56.6471 15.7227 57.513 16.1719 58.2422L38.9473 35" fill="#2FCFFF"/>
<path d="M38.9473 35L46.7637 42.9297L55.6582 37.7344C58.8027 36.0026 58.8027 34.2253 55.6582 32.4023L46.7637 27.207" fill="#FDCC00"/>
<path d="M16.1719 58.2422C17.6094 58.8802 18.9121 58.8802 20.0801 58.2422L46.8984 42.9297L39.082 35" fill="#F0304B"/>
<path d="M16.1719 11.8945L38.9473 35L46.7637 27.207L20.0801 11.8945C18.6426 11.2565 17.3398 11.2565 16.1719 11.8945Z" fill="#43E475"/>
</svg>
