<svg width="105" height="110" viewBox="0 0 105 110" fill="none" xmlns="http://www.w3.org/2000/svg">
<g clip-path="url(#clip0)">
<path d="M52.5 110C81.4949 110 105 85.3757 105 55C105 24.6243 81.4949 0 52.5 0C23.505 0 0 24.6243 0 55C0 85.3757 23.505 110 52.5 110Z" fill="#7FAFE7"/>
<path d="M60.1364 57H48.6819V84H60.1364V57Z" fill="#E5613D"/>
<path d="M25.7728 83V25C25.7728 23.896 24.9185 23 23.8637 23C22.8099 23 21.9546 23.896 21.9546 25V87H81.1364C82.1902 87 83.0455 86.104 83.0455 85C83.0455 83.896 82.1902 83 81.1364 83H25.7728Z" fill="white"/>
<path d="M42.9545 67H31.5V83H42.9545V67Z" fill="#33899E"/>
<path d="M77.3183 34H65.8638V83H77.3183V34Z" fill="white"/>
<path d="M67.077 44.665C67.4617 35.554 60.7245 27.841 52.0267 27.438C43.3308 27.034 35.9684 34.093 35.5827 43.204C35.4625 46.041 36.0352 48.743 37.1405 51.131L23.4934 65.465C24.5911 68.898 26.779 71.185 30.0588 72.326L43.4711 58.239C45.5902 59.519 48.0195 60.311 50.6321 60.432C59.3299 60.834 66.6923 53.776 67.077 44.665Z" fill="white"/>
<path d="M52.0276 27.438C43.3317 27.035 35.9693 34.093 35.5837 43.205C35.4634 46.042 36.0361 48.744 37.1415 51.132L23.4934 65.465C24.1053 67.378 25.0675 68.921 26.357 70.122L62.4751 32.284C59.7862 29.459 56.1322 27.628 52.0276 27.438Z" fill="white"/>
<path d="M51.3297 55.73C57.5478 55.73 62.5885 50.4492 62.5885 43.935C62.5885 37.4208 57.5478 32.14 51.3297 32.14C45.1116 32.14 40.0708 37.4208 40.0708 43.935C40.0708 50.4492 45.1116 55.73 51.3297 55.73Z" fill="#009FC7"/>
<path d="M51.828 32.151C45.6159 31.862 40.3573 36.904 40.0824 43.412C39.9373 46.86 41.2278 50.018 43.3899 52.277L59.2945 35.615C57.373 33.597 54.7614 32.287 51.828 32.151Z" fill="#00B7E5"/>
<path d="M37.1415 51.131L23.4934 65.465C24.5911 68.898 26.779 71.185 30.0588 72.326L43.4711 58.239C40.7344 56.584 38.5199 54.106 37.1415 51.131Z" fill="#0C333D"/>
<path d="M37.1415 51.131L23.4934 65.465C24.1053 67.378 25.0675 68.921 26.357 70.122L40.2094 55.61C38.9618 54.311 37.9166 52.803 37.1415 51.131Z" fill="#0F6175"/>
<path d="M40.5749 61.281L43.4719 58.238C40.7343 56.584 38.5197 54.106 37.1423 51.131L34.0095 54.421L40.5749 61.281Z" fill="#0F6175"/>
<path d="M37.1414 51.131L34.0085 54.421L37.6807 58.258L40.2083 55.61C38.9617 54.311 37.9165 52.803 37.1414 51.131Z" fill="#53BAD4"/>
</g>
<defs>
<clipPath id="clip0">
<rect width="105" height="110" fill="white"/>
</clipPath>
</defs>
</svg>
