<svg width="128" height="116" viewBox="0 0 128 116" fill="none" xmlns="http://www.w3.org/2000/svg">
<path d="M124.95 73.3125C124.95 73.3125 105.541 92.209 78.2136 82.1162L85.2958 75.1729C89.9725 70.5879 90.1817 63.2344 85.9682 58.4004C90.9586 57.0674 98.1455 57.3311 107.125 63.4834C105.467 62.1065 100.073 55.7197 102.478 31.4766L111.638 29.3672C111.623 29.3525 128.581 49.5528 124.95 73.3125Z" stroke="#7FAFE7" stroke-width="5" stroke-miterlimit="10" stroke-linejoin="round"/>
<path d="M102.463 31.4619C98.9373 30.8027 100.446 23.918 97.473 24.8994C93.1549 26.3203 93.0952 19.8603 94.6491 17.7217C97.1742 14.2353 105.616 12.1553 109.65 13.2392C112.833 14.1035 113.236 17.4726 114.043 21.8379C114.85 26.1885 111.623 29.3672 111.623 29.3672L102.463 31.4619Z" stroke="#7FAFE7" stroke-width="5" stroke-miterlimit="10" stroke-linejoin="round"/>
<path d="M106.647 21.7793L97.4731 24.8994" stroke="#7FAFE7" stroke-width="5" stroke-miterlimit="10" stroke-linejoin="round"/>
<path d="M50.303 82.1162C22.9602 92.1943 3.56629 73.3125 3.56629 73.3125C-0.0644698 49.5527 16.894 29.3525 16.894 29.3525L26.0531 31.4619C28.4587 55.7051 23.0798 62.1064 21.4063 63.4687C30.3861 57.3164 37.5729 57.0674 42.5634 58.3857C38.335 63.2344 38.5591 70.5879 43.2357 75.1582L50.303 82.1162Z" stroke="#7FAFE7" stroke-width="5" stroke-miterlimit="10" stroke-linejoin="round"/>
<path d="M26.0531 31.4619C29.5792 30.8027 28.0702 23.918 31.0435 24.8994C35.3616 26.3203 35.4213 19.8603 33.8674 17.7217C31.3423 14.2353 22.9004 12.1553 18.8663 13.2392C15.6837 14.1035 15.2803 17.4726 14.4735 21.8379C13.6667 26.1885 16.894 29.3672 16.894 29.3672L26.0531 31.4619Z" stroke="#7FAFE7" stroke-width="5" stroke-miterlimit="10" stroke-linejoin="round"/>
<path d="M21.8696 21.7793L31.0436 24.8994" stroke="#7FAFE7" stroke-width="5" stroke-miterlimit="10" stroke-linejoin="round"/>
<path d="M85.2959 75.1729L78.2137 82.1162L64.2584 95.7979L43.2209 75.1729C38.5442 70.5879 38.3351 63.2344 42.5485 58.4004C42.7577 58.1514 42.9818 57.917 43.2209 57.6973C45.6713 55.2949 48.8986 54.0938 52.1409 54.0938C55.3683 54.0938 58.6105 55.2949 61.0609 57.6973L64.2733 60.8467L67.4857 57.6973C72.3865 52.8926 80.4101 52.8926 85.3108 57.6973C85.5499 57.9316 85.7591 58.166 85.9832 58.4004C90.1817 63.2344 89.9725 70.5879 85.2959 75.1729Z" stroke="#FF2222" stroke-width="5" stroke-miterlimit="10"/>
<path d="M80.3054 14.4697V23.0098C80.3054 23.1416 80.1858 23.2588 80.0514 23.2588H68.8603V34.2305C68.8603 34.3623 68.7407 34.4795 68.6062 34.4795H59.8954C59.7609 34.4795 59.6414 34.3623 59.6414 34.2305V23.2588H48.4503C48.3158 23.2588 48.1963 23.1416 48.1963 23.0098V14.4697C48.1963 14.3379 48.3158 14.2207 48.4503 14.2207H59.6414V3.24902C59.6414 3.11719 59.7609 3 59.8954 3H68.6062C68.7407 3 68.8603 3.11719 68.8603 3.24902V14.2207H80.0514C80.2008 14.2207 80.3054 14.3379 80.3054 14.4697Z" stroke="#FF2222" stroke-width="5" stroke-miterlimit="10"/>
<path d="M77.571 97.7754L83.7568 103.84" stroke="#FF2222" stroke-width="5" stroke-miterlimit="10"/>
<path d="M50.9455 97.7754L44.7598 103.84" stroke="#FF2222" stroke-width="5" stroke-miterlimit="10"/>
<path d="M64.2583 107.883V115.485" stroke="#FF2222" stroke-width="5" stroke-miterlimit="10"/>
</svg>
