<svg width="80" height="80" viewBox="0 0 80 80" fill="none" xmlns="http://www.w3.org/2000/svg">
<g clip-path="url(#clip0)">
<path d="M55.313 48.99C53.578 48.99 52.174 50.393 52.174 52.118C52.174 53.832 53.577 55.24 55.313 55.24C57.032 55.24 58.435 53.832 58.435 52.118C58.436 50.394 57.032 48.99 55.313 48.99ZM10.344 48.99C8.61497 48.99 7.20797 50.393 7.20797 52.118C7.20797 53.832 8.61397 55.24 10.344 55.24C12.066 55.24 13.471 53.832 13.471 52.118C13.471 50.394 12.065 48.99 10.344 48.99ZM45.992 43.3C43.434 43.3 41.345 45.392 41.345 47.949C41.345 50.517 43.435 52.609 45.992 52.609C48.571 52.609 50.663 50.517 50.663 47.949C50.663 45.392 48.571 43.3 45.992 43.3ZM60.444 71.603H55.147V61.843C55.147 60.17 54.655 58.607 53.858 57.249C54.329 57.114 54.805 57.011 55.313 57.011C58.14 57.011 60.444 59.331 60.444 62.158V71.603ZM19.644 43.3C17.083 43.3 14.994 45.392 14.994 47.949C14.994 50.517 17.083 52.609 19.644 52.609C22.205 52.609 24.299 50.517 24.299 47.949C24.299 45.392 22.204 43.3 19.644 43.3ZM10.344 57.011C10.851 57.011 11.323 57.115 11.791 57.249C10.988 58.606 10.501 60.17 10.501 61.843V71.603H5.19897V62.159C5.19897 59.32 7.51697 57.011 10.344 57.011ZM32.819 33.994C29.028 33.994 25.942 37.086 25.942 40.871C25.942 44.672 29.028 47.758 32.819 47.758C36.609 47.758 39.706 44.672 39.706 40.871C39.706 37.086 36.609 33.994 32.819 33.994ZM53.438 75.238H45.308V60.388C45.308 58.331 44.77 56.431 43.9 54.743C44.563 54.541 45.267 54.401 45.992 54.401C50.094 54.401 53.438 57.736 53.438 61.842V75.238ZM20.327 60.388V75.239H12.202V61.848C12.202 57.746 15.539 54.407 19.638 54.407C20.373 54.407 21.07 54.547 21.733 54.749C20.863 56.441 20.327 58.337 20.327 60.388ZM22.028 79.536H43.61V60.388C43.61 54.433 38.768 49.596 32.819 49.596C26.859 49.596 22.027 54.433 22.027 60.388V79.536H22.028ZM42.052 38.883V28.596H39.272C34.94 28.596 31.414 25.07 31.414 20.733V7.853C31.408 3.521 34.935 0 39.271 0H66.477C70.811 0 74.336 3.521 74.336 7.853V20.728C74.336 25.064 70.811 28.591 66.477 28.591H52.351L42.052 38.883ZM39.271 2.812C36.498 2.812 34.235 5.075 34.235 7.853V20.728C34.235 23.511 36.498 25.774 39.271 25.774H44.874V32.078L51.181 25.774H66.478C69.253 25.774 71.516 23.511 71.516 20.728V7.853C71.516 5.075 69.253 2.812 66.478 2.812H39.271Z" fill="#7FAFE7"/>
</g>
<defs>
<clipPath id="clip0">
<rect width="79.536" height="79.536" fill="white"/>
</clipPath>
</defs>
</svg>
