<svg width="293" height="260" viewBox="0 0 293 260" fill="none" xmlns="http://www.w3.org/2000/svg">
<path d="M193.679 260C193.679 260 220.274 260 220.274 236.365V23.6354C220.274 0 193.679 0 193.679 0H100.595C100.595 0 74 0 74 23.6354V236.365C74.0004 260 100.595 260 100.595 260H193.679ZM147.137 250.159C139.797 250.159 133.84 244.872 133.84 238.359C133.84 231.845 139.797 226.559 147.137 226.559C154.478 226.559 160.435 231.845 160.435 238.359C160.435 244.872 154.478 250.159 147.137 250.159ZM127.191 14.4077C127.191 12.9445 127.975 11.7998 128.959 11.7998H165.315C166.285 11.7998 167.083 12.9682 167.083 14.4077V15.104C167.083 16.5671 166.285 17.7118 165.315 17.7118H128.959C127.988 17.7118 127.191 16.5435 127.191 15.104V14.4077ZM87.2978 29.4998H206.977V218.299H87.2978V29.4998Z" fill="black"/>
<g clip-path="url(#clip0)">
<path fill-rule="evenodd" clip-rule="evenodd" d="M147.612 170.505C135.858 170.509 124.52 175.068 115.779 183.306C107.037 191.544 101.509 202.88 100.258 215.133H194.924C193.674 202.887 188.152 191.558 179.42 183.32C170.687 175.083 159.359 170.519 147.612 170.505V170.505Z" stroke="white" stroke-width="3.77953"/>
<path d="M128.592 195.443V200.329" stroke="white" stroke-width="1.88976" stroke-linecap="square"/>
<path d="M125.984 198.061H120.047C120.047 198.061 117.274 182.958 125.121 178.208" stroke="white" stroke-width="1.88976" stroke-linecap="square"/>
<path d="M137.147 195.443V200.329" stroke="white" stroke-width="1.88976" stroke-linecap="square"/>
<path d="M139.756 198.061H145.692C145.692 198.061 148.465 177.607 140.618 172.857" stroke="white" stroke-width="1.51181" stroke-linecap="square"/>
<path d="M163.639 176.195V189.522" stroke="white" stroke-width="1.88976" stroke-linecap="square"/>
<path d="M147.592 168.696C163.885 168.696 177.094 154.848 177.094 137.766C177.094 120.684 163.885 106.836 147.592 106.836C131.298 106.836 118.089 120.684 118.089 137.766C118.089 154.848 131.298 168.696 147.592 168.696Z" stroke="white" stroke-width="3.77953"/>
<path d="M163.348 206.18C167.628 206.18 171.098 202.543 171.098 198.055C171.098 193.568 167.628 189.93 163.348 189.93C159.068 189.93 155.598 193.568 155.598 198.055C155.598 202.543 159.068 206.18 163.348 206.18Z" stroke="white" stroke-width="1.88976"/>
</g>
<defs>
<clipPath id="clip0">
<rect x="84.6372" y="97" width="124" height="130" fill="white"/>
</clipPath>
</defs>
</svg>
