<svg width="68" height="67" viewBox="0 0 68 67" fill="none" xmlns="http://www.w3.org/2000/svg">
<g clip-path="url(#clip0)">
<path fill-rule="evenodd" clip-rule="evenodd" d="M67.9996 12.1929C65.5011 13.3141 62.8109 14.0721 59.9889 14.4107C62.8704 12.6687 65.082 9.90604 66.1238 6.61571C63.4255 8.22895 60.4442 9.4025 57.2588 10.0317C54.7205 7.29357 51.092 5.5835 47.0768 5.5835C39.3774 5.5835 33.131 11.8946 33.131 19.6781C33.131 20.7831 33.2505 21.8556 33.4901 22.8883C21.8961 22.299 11.6186 16.6935 4.73304 8.15619C3.53188 10.2452 2.84497 12.6687 2.84497 15.2498C2.84497 20.1377 5.30785 24.4524 9.05157 26.9811C6.76879 26.9125 4.61297 26.2713 2.72916 25.2229V25.3961C2.72916 32.2275 7.53857 37.9257 13.9247 39.2164C12.7554 39.5473 11.5219 39.7127 10.2485 39.7127C9.35066 39.7127 8.4725 39.6279 7.62197 39.4625C9.39794 45.0601 14.5468 49.1372 20.6535 49.246C15.8797 53.0289 9.86119 55.2828 3.32735 55.2828C2.20163 55.2828 1.08813 55.2185 -0.00146484 55.0892C6.17325 59.0814 13.5093 61.4165 21.384 61.4165C47.0482 61.4165 61.0774 39.9419 61.0774 21.3149C61.0774 20.7019 61.0652 20.089 61.0413 19.4881C63.7687 17.5001 66.1354 15.02 67.9996 12.1929Z" fill="#7FAFE7"/>
</g>
<defs>
<clipPath id="clip0">
<rect width="68" height="67" fill="white"/>
</clipPath>
</defs>
</svg>
